<svg width="512" height="512" version="1.1" viewBox="0 0 512 512" xmlns="http://www.w3.org/2000/svg" xmlns:xlink="http://www.w3.org/1999/xlink">
<defs>
<linearGradient id="linearGradient857">
<stop style="stop-color:#e7000a" offset="0"/>
<stop style="stop-color:#e7000a;stop-opacity:0" offset="1"/>
</linearGradient>
<radialGradient id="radialGradient859" cx="325.4" cy="17.804" r="24.134" gradientTransform="matrix(1.3263 0 0 .82892 -106.17 3.0459)" gradientUnits="userSpaceOnUse" xlink:href="#linearGradient857"/>
<radialGradient id="radialGradient859-0" cx="325.4" cy="17.804" r="24.134" gradientTransform="matrix(1.3263 0 0 .82892 -469.82 366.7)" gradientUnits="userSpaceOnUse" xlink:href="#linearGradient857"/>
<filter id="filter1207" style="color-interpolation-filters:sRGB">
<feGaussianBlur in="SourceGraphic" result="result0" stdDeviation="2"/>
<feTurbulence baseFrequency="0.052" numOctaves="8" result="result1" seed="488" type="fractalNoise"/>
<feDisplacementMap in2="result1" result="result5" xChannelSelector="R"/>
<feComposite in="result0" in2="result5" operator="in" result="result2"/>
<feSpecularLighting lighting-color="rgb(226,252,180)" in="result2" result="result4" specularConstant="3.94" specularExponent="40" surfaceScale="3">
<feDistantLight azimuth="265" elevation="80"/>
</feSpecularLighting>
<feComposite in="result4" in2="result2" k1="5" k3="0.5" operator="arithmetic" result="result91"/>
<feBlend in2="result91" mode="darken" result="fbSourceGraphic"/>
<feGaussianBlur in="fbSourceGraphic" result="result0" stdDeviation="5"/>
<feSpecularLighting lighting-color="rgb(250,224,108)" in="result0" result="result1" specularExponent="20" surfaceScale="4">
<feDistantLight azimuth="225" elevation="50"/>
</feSpecularLighting>
<feComposite in="result1" in2="fbSourceGraphic" operator="in" result="result2"/>
<feComposite in="fbSourceGraphic" in2="result2" k2="0.5" k3="2" operator="arithmetic" result="result4"/>
<feBlend in2="result4" mode="multiply"/>
</filter>
</defs>
<g>
<circle cx="256" cy="256" r="248.06" style="fill:#18fd2b;paint-order:markers fill stroke;stop-color:#000000;stroke-linecap:round;stroke-linejoin:round;stroke-width:15.873;stroke:#000"/>
<circle cx="256" cy="256" r="248.06" style="fill:#18fd2b;filter:url(#filter1207);paint-order:markers fill stroke;stop-color:#000000"/>
</g>
<g style="mix-blend-mode:normal">
<ellipse transform="rotate(45)" cx="325.4" cy="17.804" rx="32.008" ry="20.005" style="fill:url(#radialGradient859);paint-order:markers fill stroke;stop-color:#000000"/>
<ellipse transform="matrix(-.70711 .70711 .70711 .70711 0 0)" cx="-38.26" cy="381.46" rx="32.008" ry="20.005" style="fill:url(#radialGradient859-0);paint-order:markers fill stroke;stop-color:#000000"/>
<path d="m225.61 462.44c0-0.68696 2.3233-3.076 5.163-5.3097 7.8676-6.1887 9.9935-11.722 10.39-27.047 0.42263-16.305 3.6021-21.772 7.3084-12.564 5.6148 13.948 1.7938 32.071-8.8527 41.99-4.101 3.8206-14.009 5.8937-14.009 2.9312zm45.251-5.0039c-12.151-13.007-12.898-30.809-2.0125-47.973 11.092-17.49 29.411-22.27 48.4-12.629 16.568 8.412 20.386 11.981 18.882 17.646-2.8822 10.852-4.3368 11.221-15.648 3.9622-19.628-12.595-36.641-9.4753-46.348 8.4996-3.4988 6.4788-3.6923 8.458-1.5317 15.67 1.3602 4.5398 5.424 11.139 9.0305 14.665l6.5576 6.4111h-5.7444c-3.7414 0-7.7811-2.1801-11.585-6.2523zm-92.629-4.3017c-5.3112-2.1179-14.421-9.7506-14.421-12.083 0-3.8303 14.147-7.6146 25.049-6.7006 11.513 0.96533 11.772 0.86451 20.6-8.0168 10.41-10.473 15.093-22.188 19.347-48.393 6.2366-38.422 2.731-60.431-12.089-75.898l-8.692-9.0715-13.352 0.59409c-7.3438 0.3268-24.476 1.3145-38.072 2.195-45.437 2.9425-81.279-8.7767-96.31-31.491-14.19-21.442-15.018-46.471-2.338-70.602 8.1652-15.539 28.935-38.37 44.578-49.003l9.7888-6.6538c4.5812 3.2484 7.4259 7.1205 10.018 10.81l-22.168 21.991c-24.323 24.13-31.301 35.439-32.766 53.101-0.69531 8.3831 0.23548 13.193 4.25 21.962 6.0463 13.207 14.84 20.577 31.687 26.559 10.349 3.6746 15.17 4.1237 33.977 3.1649 31.56-1.609 49.807-10.228 46.136-21.793-3.0735-9.6835-19.18-8.3985-26.693 2.1296l-3.458 4.8455-4.9503-5.6683c-13.893-15.908-11.721-44.231 4.7397-61.795 6.3593-6.7861 8.6577-7.1422 8.6577-1.3413 0 8.5386 6.4262 18.488 12.759 19.755 4.516 0.90321 5.6649 2.0263 4.6299 4.5261-0.75714 1.8287-1.8038 5.1788-2.3258 7.4448-0.93251 4.0478-0.89282 4.0506 2.2675 0.1572 4.6347-5.7098 6.2293-16.986 3.6093-25.522-1.2465-4.0617-1.9169-7.7344-1.4897-8.1616 1.0236-1.0236 29.989 36.485 29.989 38.835 0 0.99743-2.3426 0.74614-5.2058-0.55838-7.2073-3.2839-9.654-0.28734-7.1056 8.7021 3.0321 10.695 3.898 11.51 22.704 21.374l17.385 9.1187 6.4255 16.453c3.7568 9.6194 6.9431 22.311 7.6716 30.556 2.3386 26.47-6.3112 82.722-16.15 105.03-5.5447 12.571-18.625 27.805-28.197 32.837-6.337 3.3319-22.832 3.6622-30.486 0.61054zm122.9-2.3533c-7.4111-4.6161-21.965-20.725-21.965-24.312 0-2.0002 10.177-10.159 12.672-10.159 0.99933 0 5.8138 4.1714 10.699 9.2698 7.2967 7.6153 10.202 9.2698 16.276 9.2698 4.067 0 8.9002-0.5778 10.741-1.284 4.8681-1.8681 10.7-14.596 12.389-27.04l1.468-10.815h8.1112c10.433 0 11.356 2.6295 7.0642 20.142-6.8284 27.864-15.787 37.433-36.429 38.912-11.24 0.80571-14.256 0.2347-21.027-3.9828zm-163.07-14.544c-11.372-4.45-15.287-7.5872-20.418-16.361-4.6618-7.9723-10.289-26.227-8.085-26.227 0.51074 0 4.9726 1.0182 9.9148 2.2628 6.9532 1.7508 9.5512 3.6269 11.484 8.2933 1.3738 3.3168 5.0678 7.8604 8.2088 10.097 9.7828 6.966 17.596 5.3184 40.813-8.6062 16.14-9.6798 23.536-12.904 31.32-13.652 11.297-1.0855 11.994-0.0624 7.9285 11.597-1.7073 4.8975-3.4991 6.4872-7.3121 6.4872-6.0603 0-15.63 4.7322-25.446 12.583-9.319 7.4533-29.444 16.301-36.623 16.1-3.0834-0.0866-8.3871-1.245-11.786-2.575zm222.02 1.0989c-3.7782-2.4425 1.1942-16.888 6.5283-18.966 5.8505-2.279 14.844-12.2 17.549-19.359 2.7347-7.2365-1.3738-21.528-9.2626-32.221-2.7998-3.795-5.0906-8.6198-5.0906-10.722 0-4.8113 5.6745-15.977 8.1196-15.977 5.5139 0 21.385 26.812 24.744 41.802 3.957 17.657-7.1221 44.639-21.058 51.285-9.0319 4.307-18.478 6.1316-21.53 4.1588zm-207.36-28.752c-0.61211-3.1157-1.7219-15.94-2.4666-28.499l-1.3539-22.834 5.7458-4.5197c3.1602-2.4857 6.4563-3.7978 7.3248-2.9155 1.4505 1.4733 8.015 46.118 8.015 54.51 0 3.3304-9.4036 9.9232-14.154 9.9232-1.0992 0-2.4993-2.5492-3.1113-5.6648zm114.21-18.76c-6.9523-29.697-7.01-67.763-7.183-74.853-0.0347-1.4209 3.6223-22.156 6.9203-30.362l6.7478-16.788 15.749-7.9256c16.914-8.5117 21.455-12.399 24.818-21.244 3.238-8.5166 0.9304-12.346-6.461-10.723-7.2964 1.6026-7.5718 2.219 9.5683-21.421 12.33-17.006 17.183-21.137 13.523-11.51-3.4328 9.0289-2.3298 22.028 2.3484 27.675 3.4558 4.1719 3.9894 4.3675 2.8104 1.03-3.6468-10.323-3.5862-11.33 0.68228-11.33 5.3948 0 12.268-8.7269 13.955-17.719 0.72205-3.8505 2.0547-7.0009 2.961-7.0009 2.9222 0 12.848 13.127 17.011 22.496 4.9229 11.08 3.9678 26.355-2.4323 38.9-5.6288 11.033-7.8148 12.059-12.635 5.931-8.2755-10.521-23.262-10.744-25.862-0.38465-3.0295 12.071 15.417 20.173 46.532 20.439 10.763 0.0918 22.93-0.54864 27.038-1.4233 7.1374-1.5197 7.6258-1.259 11.013 5.8787 1.9494 4.108 2.7598 8.2471 1.8011 9.1981-0.95862 0.951-9.1589 3.2754-18.223 5.1653-16.442 3.4283-29.77 3.3642-75.349-0.36228-15.458-1.2638-15.685-1.2104-23.296 5.4717-14.239 12.502-16.713 19.965-16.709 50.397 2e-3 14.729 0.64798 29.66 1.4347 33.181 1.2979 5.806 0.6893 6.8866-6.5462 11.624l-7.9771 5.2227zm-147.17 1.5345c-15.788-3.7063-31.777-14.127-41.478-27.034-10.701-14.235-15.423-28.264-15.388-45.722 0.0234-10.931 4.2304-32.892 6.7956-35.457 0.49514-0.4953 4.3348 1.1256 8.5321 3.6021 6.1224 3.6124 7.3665 5.3601 6.2912 8.8385-0.73686 2.3847-1.8285 10.825-2.4252 18.756-2.0631 27.425 10.39 47.125 35.8 56.632 6.0805 2.275 15.192 4.1364 20.248 4.1364h9.1926v18.54l-9.7848-0.20741c-5.3817-0.11385-13.384-1.0518-17.782-2.0844zm232.27 0.23081c-14.515-2.1262-32.821-12.381-51.036-28.589-14.768-13.141-15.327-13.977-15.332-22.908-6e-3 -11.866 4.1798-23.492 8.7814-24.387 1.9721-0.38379 5.842-0.13076 8.6002 0.56134 4.0991 1.0289 4.7852 2.1724 3.7585 6.2632-0.69086 2.7526 0.27915 9.6262 2.1551 15.275 5.732 17.258 24.781 30.874 49.756 35.567 17.348 3.2594 17.124 3.153 19.443 9.2524 4.2228 11.107-0.48501 12.722-26.126 8.9662zm-179.98-6.9512c0-1.5579-0.55752-5.6201-1.2389-9.0272-1.1595-5.7971-0.53101-6.5741 9.7848-12.102 14.851-7.9583 24.413-21.977 24.413-35.789 0-10.402 1.7862-12.347 11.339-12.347 5.5136 0 8.3757 6.6342 10.22 23.689l1.1136 10.3-14.465 12.32c-15.695 13.368-34.236 25.789-38.496 25.789-1.4687 0-2.6704-1.2746-2.6704-2.8324zm236.06-0.97656c-0.58949-0.95363-1.6195-5.3534-2.2891-9.7772-1.1239-7.4245-0.69242-8.3766 5.6116-12.374 3.7561-2.3819 9.4764-9.1945 12.712-15.139 5.2849-9.7101 5.8526-12.619 5.5868-28.629-0.35869-21.628-4.1553-30.749-28.683-68.915-18.608-28.954-26.148-43.028-30.458-56.848-3.4666-11.116-3.9293-36.214-0.81843-44.396l2.1733-5.7165 6.6567 5.1872c6.2047 4.8349 6.6103 5.9148 5.9733 15.903-1.0488 16.446 4.8045 36.681 14.75 50.988 4.7263 6.7994 13.328 19.193 19.116 27.541 20.858 30.087 31.628 55.803 31.682 75.649 0.0312 11.973-5.4761 32.635-10.767 40.386-10.458 15.319-28.569 30.471-31.245 26.141zm-284.98-15.742c-3.6821-1.6004-6.6949-3.7983-6.6949-4.8843 0-3.7568 15.9-21.96 29.038-33.244 17.947-15.414 27.821-25.184 28.942-28.636 1.0334-3.1837 20.872-5.6604 29-3.6204 6.0304 1.5135 14.436 9.2175 12.853 11.779-0.65889 1.0655-3.2828 1.9372-5.8318 1.9372-10.142 0-48.725 28.029-66.532 48.332-5.4773 6.245-10.886 11.33-12.019 11.3-1.133-0.0312-5.0726-1.3641-8.7548-2.9645zm230.55 0.60742c-6.7119-1.8191-6.8293-2.0443-5.481-10.512 1.7256-10.838 10.107-29.734 16.064-36.214 11.412-12.415 32.928-16.313 41.689-7.5528 5.5945 5.5944 7.0374 18.918 2.5363 23.419-1.9868 1.9868-2.9798 0.88133-4.6928-5.2236-2.7036-9.6359-9.7451-12.862-18.702-8.5693-7.9592 3.8147-18.698 22.131-20.452 34.885-0.76883 5.5919-2.0068 10.496-2.7503 10.897-0.74388 0.40158-4.4385-0.10682-8.2108-1.1291zm-249.09-30.805c-1.4162-1.4161-2.5748-6.4935-2.5748-11.283 0-15.851 15.432-21.842 34.25-13.296 11.196 5.0843 12.478 7.6732 6.7949 13.723l-4.7056 5.009-4.364-4.0998c-5.8167-5.4644-15.524-7.2216-20.306-3.6754-2.0792 1.542-4.3967 5.8171-5.15 9.5005-1.0958 5.3575-1.8848 6.182-3.9445 4.1223zm233.76-6.0218c-12.804-10.554-30.771-20.448-37.131-20.448-4.6307 0-5.72-0.74583-4.7561-3.2584 0.68774-1.7922 1.2504-3.6223 1.2504-4.0671 0-2.4378 13.285-7.0942 20.24-7.0942 11.448 0 20.959 2.188 20.959 4.8216 0 1.2357 4.2256 6.5368 9.3903 11.78l9.3903 9.5336-4.444 7.5318c-2.4441 4.1425-5.0681 7.5318-5.831 7.5318-0.7626 0-4.8434-2.8489-9.0677-6.331zm-160.13-155.43c-8.6991-10.224-16.789-20.421-17.977-22.66-1.6488-3.1069-0.80993-8.7024 3.5441-23.64 6.6831-22.928 15.454-46.485 19.749-53.041 29.901-25.287 73.373-32.471 100.15-23.293 30.686 10.577 43.052 17.962 48.485 28.955 4.6822 9.4742 15.386 40.566 20.061 58.273l2.6043 9.8636-10.533 12.999c-5.7934 7.1493-26.127 35.306-32.531 43.126-10.395 12.692-41.566 53.791-46.957 62.769-1.9555 3.2569-2.3486 3.2123-5.33-0.60361-3.0396-3.8905-3.3678-3.9192-5.8935-0.51502-1.4712 1.9827-3.1317 3.6049-3.6903 3.6049-21.349-30.435-49.468-65.313-71.679-95.838zm260.77 87.965c-3.4555-7.6628-3.4283-8.0789 1.0201-15.618 3.506-5.9423 4.5701-10.989 4.5701-21.676 0-23.894-9.1155-36.219-63.758-86.211-25.29-23.137-32.691-34.385-32.41-49.255 0.20975-11.084 4.9534-18.192 14.17-21.234 6.2474-2.0618 8.4293-1.8508 14.743 1.4259 7.5534 3.9199 17.368 17.634 14.6 20.402-0.8398 0.83979-3.609-0.34707-6.1536-2.6375-11.296-10.167-20.076-7.3973-20.076 6.3339 0 7.515 1.339 10.429 8.5662 18.639 4.7115 5.3524 17.921 16.777 29.354 25.387 29.791 22.436 45.872 40.48 54.958 61.665 8.2107 19.145 3.8061 52.489-8.6908 65.791-2.5121 2.674-5.192 4.8618-5.9555 4.8618-0.76338 0-2.9854-3.5427-4.938-7.8725zm-348.92-2.4672c-4.3408-2.6466-6.2435-5.0629-5.2658-6.6872 0.84197-1.3988 9.154-13.429 18.471-26.734 9.3172-13.305 18.506-28.905 20.42-34.667 2.9183-8.7862 4.2356-25.579 3.2602-41.56-0.34699-5.6879-14.199-19.626-22.095-22.231-3.9508-1.3039-9.4345-1.8057-12.186-1.1151-8.0532 2.0212-19.241 13.251-21.838 21.919-2.746 9.1653-5.8995 8.8314-5.8995-0.62481 0-9.8405 7.8488-23.909 17.062-30.583 13.957-10.11 31.505-7.6896 47.768 6.5901 9.6009 8.4297 12.871 15.811 14.609 32.98 1.6878 16.671-1.4496 33.582-9.2448 49.829-7.0858 14.768-34.249 57.047-36.644 57.035-0.89141-4e-3 -4.6792-1.8725-8.4175-4.1516zm350.93-112.21c-5.9519-15.585-23.057-25.499-33.943-19.674-3.603 1.9282-5.4908 1.5671-10.517-2.0117-7.9984-5.6954-7.7269-7.7422 1.5406-11.614 9.9167-4.1435 24.89-2.741 33.093 3.0997 10.725 7.6368 21.317 34.432 15.124 38.26-0.98787 0.61047-3.3719-3.0164-5.2979-8.0597zm-308.39-27.389 7.3633-9.6465c8.7005-11.398 10.247-24.122 3.3788-27.798-5.7714-3.0888-7.3454-2.733-14.484 3.2738-8.1667 6.8718-10.407 4.7388-5.1716-4.923 8.2824-15.284 23.611-18.49 34.82-7.2814 10.5 10.5 4.6474 36.494-11.62 51.614l-4.9992 4.6464c-2.735-3.3654-5.602-6.9988-9.2867-9.8851z" style="mix-blend-mode:normal;stroke-width:2.06"/>
</g>
</svg>
